<?xml version="1.0"?>
<svg xmlns="http://www.w3.org/2000/svg" viewBox="0 0 512 512" width="512" height="512"><g id="outline"><path d="M392,224h8v-8a8,8,0,0,0-8-8h-8v8A8,8,0,0,0,392,224Z"/><path d="M448,216v-8h-8a8,8,0,0,0-8,8v8h8A8,8,0,0,0,448,216Z"/><path d="M416,264a8,8,0,0,0,8-8v-4a4,4,0,0,0-4-4h-8a4,4,0,0,0-4,4v4A8,8,0,0,0,416,264Z"/><path d="M160,152a64.0727,64.0727,0,0,0-64,64v32H68a4.00458,4.00458,0,0,1-4-4V224a24,24,0,0,0-48,0v20a52.08726,52.08726,0,0,0,41.64038,50.96082L18.64844,330.05371A7.99846,7.99846,0,0,0,16,336v80a7.99977,7.99977,0,0,0,8,8H88a7.99977,7.99977,0,0,0,8-8,39.96344,39.96344,0,0,0-16.02777-32H80V356.749L162.04,312h1.01587l-18.21118,36.42236a7.9998,7.9998,0,0,0,.37109,7.81787l40,64A8.00055,8.00055,0,0,0,192,424h72a7.99977,7.99977,0,0,0,8-8,40.04521,40.04521,0,0,0-40-40h-3.05566l-11.71289-23.42529L244.28125,312h61.58929L312,322.21582V416a7.99977,7.99977,0,0,0,8,8h64a7.99977,7.99977,0,0,0,8-8,39.96344,39.96344,0,0,0-16.02777-32H376V286.41162l54.552,66.67456-11.3518,8.51392A7.99927,7.99927,0,0,0,416,368v16a7.99977,7.99977,0,0,0,8,8h40a7.99593,7.99593,0,0,0,4.43749-1.34375l24-16A7.99941,7.99941,0,0,0,496,368V336a8.00165,8.00165,0,0,0-1.92578-5.20654l-42.85034-49.99207a31.78429,31.78429,0,0,0,4.41723-12.00451A36.71238,36.71238,0,0,0,472,238.11133v-9.83008l6.188-4.12549A39.91846,39.91846,0,0,0,496,190.874V176a7.99977,7.99977,0,0,0-8-8H442.89648l-22.98437-19.15381A90.11149,90.11149,0,0,0,362.333,128H337.94092a89.3071,89.3071,0,0,0-61.16748,24M68,280a36.04061,36.04061,0,0,1-36-36V224a8,8,0,0,1,16,0v20a20.02292,20.02292,0,0,0,20,20H92.04114L74.26343,280Zm151.71875,40H192v16h17.05206l-5.33331,8H184v16h19.05591l8,16H200v16h32a24.04118,24.04118,0,0,1,22.62891,16H196.43408l-35.272-56.43555L180.94409,312h44.108ZM352,376h-8v16h8a24.04118,24.04118,0,0,1,22.62891,16H328V320a7.9971,7.9971,0,0,0-1.14014-4.11572l-24-40-13.71972,8.23144L296.27063,296H256V269.25488a39.73644,39.73644,0,0,0-11.71582-28.28418l-6.62744-6.62744-11.31348,11.31348,6.62744,6.62744A23.84457,23.84457,0,0,1,240,269.25488V296H224V285.25488a39.73644,39.73644,0,0,0-11.71582-28.28418l-6.62744-6.62744-11.31348,11.31348,6.62744,6.62744A23.84457,23.84457,0,0,1,208,285.25488V296H191.64911a39.68806,39.68806,0,0,0-11.36493-23.0293l-6.62744-6.62744-11.31348,11.31348,6.62744,6.62744A23.8361,23.8361,0,0,1,175.419,296H163.31348l-21.65674-21.65674-11.31348,11.31348,16.44,16.43994L130.36542,311.052l-20.70868-20.70874L98.34326,301.65674,115.72449,319.038,68.16943,344.97705A7.99924,7.99924,0,0,0,64,352v24.80493A40.02741,40.02741,0,0,0,56,376H48v16h8a24.04118,24.04118,0,0,1,22.62891,16H32V339.563l77.35156-69.6167A7.99846,7.99846,0,0,0,112,264V216a48.0737,48.0737,0,0,1,37.38324-46.80206A39.75463,39.75463,0,0,0,144,189.25488V240h16V189.25488a23.84457,23.84457,0,0,1,7.0293-16.9707L171.31348,168h25.373l-.9707.9707A39.73644,39.73644,0,0,0,184,197.25488V224h16V197.25488a23.84457,23.84457,0,0,1,7.0293-16.9707L219.31348,168h25.373l-8.9707,8.9707A39.73644,39.73644,0,0,0,224,205.25488V208h16v-2.74512a23.84457,23.84457,0,0,1,7.0293-16.9707L267.31348,168H280a7.99877,7.99877,0,0,0,5.65674-2.34326A73.459,73.459,0,0,1,337.94092,144H362.333A74.08042,74.08042,0,0,1,409.669,161.13818L434.87842,182.146A8.00237,8.00237,0,0,0,440,184h40v6.874a23.95187,23.95187,0,0,1-10.687,19.96924l-9.7505,6.50049A7.99944,7.99944,0,0,0,456,224v14.11133a20.831,20.831,0,0,1-11.57764,18.7334A7.99924,7.99924,0,0,0,440,264a16.01833,16.01833,0,0,1-16,16H408a16.01833,16.01833,0,0,1-16-16,7.99924,7.99924,0,0,0-4.42236-7.15527A20.831,20.831,0,0,1,376,238.11133V224a7.99941,7.99941,0,0,0-3.56251-6.65625l-9.75048-6.501A23.95036,23.95036,0,0,1,352,190.874V184h24V168H344a7.99977,7.99977,0,0,0-8,8v14.874a39.91846,39.91846,0,0,0,17.812,33.28174L360,228.28125V248h-1.57764a18.91091,18.91091,0,0,1-15.76611-8.4375A34.87749,34.87749,0,0,0,313.57764,224H296v16h17.57764a18.91091,18.91091,0,0,1,15.76611,8.4375A34.87749,34.87749,0,0,0,358.42236,264H360v16H328v16h32v16H344v16h16v16H344v16h16v16.80493A40.02741,40.02741,0,0,0,352,376Zm128-12.28125L461.57764,376H432v-4l28.7998-21.6001-9.5996-12.7998-7.83649,5.87732-39.0221-47.69373A32.15269,32.15269,0,0,0,408,296h16a31.79536,31.79536,0,0,0,15.65747-4.10645L480,338.95947Z"/></g></svg>
